<svg xmlns="http://www.w3.org/2000/svg" xmlns:xlink="http://www.w3.org/1999/xlink" preserveAspectRatio="xMidYMid" width="14" height="10" viewBox="0 0 14 10">
  <defs>
    <style>

      .cls-2 {
        fill: #ffffff;
      }
    </style>
  </defs>
  <path d="M13.005,9.784 C13.005,9.784 7.007,1.740 7.007,1.740 C7.007,1.740 1.008,9.784 1.008,9.784 C0.780,10.065 0.409,10.065 0.180,9.784 C-0.049,9.503 -0.049,9.048 0.180,8.767 C0.180,8.767 6.563,0.207 6.563,0.207 C6.685,0.057 6.847,-0.007 7.007,0.004 C7.166,-0.007 7.328,0.057 7.450,0.207 C7.450,0.207 13.833,8.767 13.833,8.767 C14.062,9.048 14.062,9.503 13.833,9.784 C13.604,10.065 13.234,10.065 13.005,9.784 Z" id="path-1" class="cls-2" fill-rule="evenodd"/>
</svg>
