<svg xmlns="http://www.w3.org/2000/svg" xmlns:xlink="http://www.w3.org/1999/xlink" preserveAspectRatio="xMidYMid" width="14" height="10" viewBox="0 0 14 10">
  <defs>
    <style>

      .cls-2 {
        fill: #ffffff;
      }
    </style>
  </defs>
  <path d="M0.995,0.185 C0.995,0.185 6.993,8.228 6.993,8.228 C6.993,8.228 12.992,0.185 12.992,0.185 C13.220,-0.096 13.591,-0.096 13.820,0.185 C14.049,0.465 14.049,0.921 13.820,1.202 C13.820,1.202 7.437,9.762 7.437,9.762 C7.315,9.911 7.153,9.975 6.993,9.965 C6.834,9.975 6.672,9.911 6.550,9.762 C6.550,9.762 0.167,1.202 0.167,1.202 C-0.062,0.921 -0.062,0.465 0.167,0.185 C0.396,-0.096 0.766,-0.096 0.995,0.185 Z" id="path-1" class="cls-2" fill-rule="evenodd"/>
</svg>
