<svg xmlns="http://www.w3.org/2000/svg" xmlns:xlink="http://www.w3.org/1999/xlink" preserveAspectRatio="xMidYMid" width="10" height="14" viewBox="0 0 10 14">
  <defs>
    <style>

      .cls-2 {
        fill: #ffffff;
      }
    </style>
  </defs>
  <path d="M0.185,13.005 C0.185,13.005 8.228,7.007 8.228,7.007 C8.228,7.007 0.185,1.008 0.185,1.008 C-0.096,0.780 -0.096,0.409 0.185,0.180 C0.465,-0.049 0.921,-0.049 1.202,0.180 C1.202,0.180 9.762,6.563 9.762,6.563 C9.911,6.685 9.975,6.847 9.965,7.007 C9.975,7.166 9.911,7.328 9.762,7.450 C9.762,7.450 1.202,13.833 1.202,13.833 C0.921,14.062 0.465,14.062 0.185,13.833 C-0.096,13.604 -0.096,13.234 0.185,13.005 Z" id="path-1" class="cls-2" fill-rule="evenodd"/>
</svg>
