<svg xmlns="http://www.w3.org/2000/svg" xmlns:xlink="http://www.w3.org/1999/xlink" preserveAspectRatio="xMidYMid" width="56" height="56" viewBox="0 0 56 56">
  <defs>
    <style>

      .cls-2 {
        fill: #ffffff;
      }
    </style>
  </defs>
  <path d="M52.348,31.652 C52.348,31.652 31.652,31.652 31.652,31.652 C31.652,31.652 31.652,52.348 31.652,52.348 C31.652,54.365 30.017,56.000 28.000,56.000 C25.983,56.000 24.348,54.365 24.348,52.348 C24.348,52.348 24.348,31.652 24.348,31.652 C24.348,31.652 3.652,31.652 3.652,31.652 C1.635,31.652 -0.000,30.017 -0.000,28.000 C-0.000,25.983 1.635,24.348 3.652,24.348 C3.652,24.348 24.348,24.348 24.348,24.348 C24.348,24.348 24.348,3.652 24.348,3.652 C24.348,1.635 25.983,-0.000 28.000,-0.000 C30.017,-0.000 31.652,1.635 31.652,3.652 C31.652,3.652 31.652,24.348 31.652,24.348 C31.652,24.348 52.348,24.348 52.348,24.348 C54.365,24.348 56.000,25.983 56.000,28.000 C56.000,30.017 54.365,31.652 52.348,31.652 Z" id="path-1" class="cls-2" fill-rule="evenodd"/>
</svg>
